<svg xmlns="http://www.w3.org/2000/svg" version="1.1" xmlns:xlink="http://www.w3.org/1999/xlink" xmlns:svgjs="http://svgjs.dev/svgjs" width="1500" height="1500" viewBox="0 0 1500 1500"><rect width="1500" height="1500" fill="#000000"></rect><g transform="matrix(0.6666666666666666,0,0,0.6666666666666666,249.50000000000006,249.50050765489277)"><svg viewBox="0 0 280 280" data-background-color="#ffffff" preserveAspectRatio="xMidYMid meet" height="1500" width="1500" xmlns="http://www.w3.org/2000/svg" xmlns:xlink="http://www.w3.org/1999/xlink"><g id="tight-bounds" transform="matrix(1,0,0,1,0.13999999999998636,0.13985785663001593)"><svg viewBox="0 0 279.72 279.72" height="279.72" width="279.72"><g><svg viewBox="0 0 279.72 279.72" height="279.72" width="279.72"><g><svg viewBox="0 0 279.72 279.72" height="279.72" width="279.72"><g id="textblocktransform"><svg viewBox="0 0 279.72 279.72" height="279.72" width="279.72" id="textblock"><g><svg viewBox="0 0 279.72 279.72" height="279.72" width="279.72"><g transform="matrix(1,0,0,1,57.446704652707865,57.446704652707865)"><svg viewBox="0 0 164.8265906945843 164.8265906945843" height="164.8265906945843" width="164.8265906945843"><g id="icon-0"><circle r="82" cx="82.41329534729215" cy="82.41329534729215" fill="#ffffff" data-fill-palette-color="accent"></circle><svg xmlns="http://www.w3.org/2000/svg" xmlns:xlink="http://www.w3.org/1999/xlink" version="1.1" x="24.72398860418764" y="24.723988604187646" viewBox="3.9 1.8 84.69999999999999 88.4" style="enable-background:new 0 0 91 91;" xml:space="preserve" height="115.378613486209" width="115.378613486209" class="icon-jxe-0" data-fill-palette-color="quaternary" id="jxe-0"><g fill="#ffffff" data-fill-palette-color="quaternary"><path d="M77.6 19.9V14.2H52C52.6 13.2 52.9 12.1 52.9 10.8 52.9 7.6 50.7 5 47.7 4.2V1.8H44.5V4.2C41.5 4.9 39.3 7.6 39.3 10.8 39.3 12 39.7 13.2 40.2 14.2H14.8V19.9H17.2L4 52.1C3.9 52.3 3.9 52.5 3.9 52.7 3.9 55.4 6.1 57.7 8.9 57.7H29C31.7 57.7 34 55.5 34 52.7 34 52.5 34 52.3 33.9 52.1L20.4 19.7C20.4 19.4 20.3 19.2 20.1 19 19.6 18.3 18.6 18.2 17.9 18.6V17.4H41.2V78.7C39.5 79.5 38 80.7 36.9 82.2H15.1C11.6 82.2 8.7 85 8.7 88.6V90.2H83.5V88.6C83.5 85.1 80.7 82.2 77.2 82.2H55.4C54.3 80.6 52.8 79.5 51.1 78.7V17.3H74.5V18.6C73.8 18.1 72.6 18.2 72.1 18.9 71.9 19.1 71.8 19.4 71.8 19.7L58.6 52.1C58.5 52.3 58.5 52.5 58.5 52.7 58.5 55.4 60.7 57.7 63.5 57.7H83.6C86.3 57.7 88.6 55.5 88.6 52.7 88.6 52.5 88.6 52.3 88.5 52.1L75.1 19.9zM28.9 54.4H8.8C7.9 54.4 7.2 53.7 7 52.9L7.3 52.2H30.3L30.6 52.9C30.5 53.8 29.8 54.4 28.9 54.4M18.8 24.2L29 49H8.6zM42.6 10.8C42.6 9.4 43.4 8.2 44.6 7.6V10.7H47.8V7.6C49 8.2 49.8 9.4 49.8 10.8 49.8 12.4 48.8 13.7 47.4 14.2H45C43.6 13.7 42.6 12.4 42.6 10.8M53.1 84.5L53.6 85.3H77.2C78.4 85.3 79.4 85.9 79.9 86.9H12.3C12.9 86 13.9 85.3 15 85.3H38.6L39.1 84.5C40.4 82.2 42.8 80.8 45.4 80.8H46.7C49.4 80.8 51.8 82.3 53.1 84.5M45.5 77.7H44.4V17.6H47.8V77.7zM73.5 24.2L83.7 49H63.3zM83.5 54.4H63.4C62.5 54.4 61.8 53.7 61.6 52.9L61.9 52.2H84.9L85.2 52.9C85.1 53.8 84.4 54.4 83.5 54.4" fill="#000000" data-fill-palette-color="quaternary"></path></g></svg></g></svg></g><g id="text-0"><path d="M22.162 97.188l1.642 0.498-2.796 9.23-12.858-3.893 2.795-9.231 1.642 0.497-1.721 5.682 3.982 1.206 1.327-4.385 1.632 0.494-1.327 4.385 3.961 1.199z" fill="#ffffff" data-fill-palette-color="primary"></path><path d="M24.414 82.442v0c0.724 0.309 1.356 0.705 1.894 1.189 0.536 0.489 0.949 1.038 1.24 1.646 0.289 0.615 0.439 1.274 0.451 1.979 0.018 0.708-0.134 1.439-0.457 2.195v0c-0.247 0.579-0.588 1.063-1.022 1.452-0.434 0.388-0.956 0.653-1.567 0.793v0l5.753 2.456-1.238 2.9-14.482-6.182 0.476-1.115 2.702-0.365c-0.305-0.279-0.559-0.592-0.76-0.939-0.202-0.347-0.345-0.709-0.429-1.088-0.084-0.378-0.109-0.765-0.075-1.159 0.035-0.395 0.134-0.784 0.298-1.169v0c0.323-0.756 0.743-1.373 1.26-1.852 0.524-0.476 1.107-0.823 1.75-1.04 0.641-0.21 1.323-0.291 2.047-0.242 0.721 0.055 1.441 0.235 2.159 0.541zM23.16 85.38v0c-0.252-0.108-0.525-0.209-0.82-0.305-0.294-0.096-0.593-0.171-0.897-0.226-0.31-0.058-0.616-0.084-0.916-0.079-0.307 0.003-0.597 0.047-0.871 0.131-0.268 0.087-0.514 0.227-0.738 0.422-0.218 0.197-0.395 0.453-0.529 0.768v0c-0.142 0.334-0.209 0.648-0.201 0.942 0.011 0.288 0.077 0.561 0.197 0.821 0.126 0.262 0.292 0.501 0.498 0.715 0.21 0.224 0.44 0.426 0.69 0.607 0.257 0.184 0.521 0.349 0.794 0.496 0.273 0.146 0.538 0.274 0.796 0.384v0c0.233 0.099 0.495 0.193 0.786 0.28 0.293 0.081 0.593 0.145 0.899 0.194 0.316 0.045 0.628 0.063 0.938 0.054 0.316-0.007 0.615-0.054 0.898-0.142 0.283-0.088 0.534-0.222 0.753-0.404 0.223-0.173 0.399-0.411 0.528-0.713v0c0.137-0.321 0.198-0.63 0.183-0.926-0.017-0.29-0.088-0.562-0.21-0.816-0.123-0.253-0.289-0.492-0.498-0.716-0.21-0.224-0.44-0.426-0.69-0.607-0.257-0.184-0.521-0.349-0.794-0.495-0.279-0.149-0.544-0.277-0.796-0.385z" fill="#ffffff" data-fill-palette-color="primary"></path><path d="M20.552 72.774v0c0.206 0.109 0.381 0.253 0.527 0.431 0.146 0.178 0.251 0.374 0.317 0.587 0.063 0.204 0.086 0.422 0.072 0.654-0.021 0.229-0.087 0.45-0.2 0.661v0c-0.109 0.206-0.253 0.381-0.43 0.528-0.181 0.137-0.375 0.239-0.582 0.307-0.21 0.059-0.431 0.082-0.663 0.067-0.229-0.021-0.447-0.086-0.653-0.195v0c-0.212-0.112-0.388-0.256-0.527-0.43-0.143-0.184-0.245-0.378-0.308-0.582-0.065-0.213-0.089-0.431-0.072-0.654 0.021-0.229 0.086-0.447 0.195-0.653v0c0.112-0.212 0.257-0.391 0.436-0.536 0.178-0.146 0.372-0.248 0.581-0.308 0.207-0.069 0.425-0.092 0.655-0.071 0.223 0.018 0.441 0.083 0.652 0.194zM22.794 74.114l9.511 5.043-1.482 2.795-9.51-5.043z" fill="#ffffff" data-fill-palette-color="primary"></path><path d="M35.824 63.546v0c0.661 0.428 1.216 0.925 1.664 1.492 0.445 0.573 0.759 1.184 0.943 1.833 0.18 0.655 0.216 1.33 0.108 2.027-0.102 0.7-0.377 1.396-0.823 2.086v0c-0.342 0.529-0.76 0.948-1.253 1.257-0.493 0.309-1.053 0.481-1.679 0.516v0l5.252 3.397-1.713 2.648-13.221-8.552 0.658-1.018 2.725 0.099c-0.253-0.327-0.45-0.678-0.59-1.054-0.14-0.376-0.219-0.758-0.238-1.145-0.019-0.387 0.023-0.772 0.124-1.156 0.101-0.383 0.265-0.75 0.491-1.1v0c0.446-0.69 0.965-1.227 1.556-1.612 0.597-0.381 1.231-0.623 1.902-0.727 0.667-0.099 1.353-0.062 2.059 0.108 0.701 0.176 1.38 0.477 2.035 0.901zM34.089 66.228v0c-0.23-0.149-0.482-0.295-0.755-0.44-0.274-0.144-0.555-0.27-0.846-0.376-0.296-0.11-0.592-0.187-0.889-0.232-0.303-0.049-0.596-0.055-0.881-0.019-0.279 0.04-0.545 0.137-0.799 0.29-0.249 0.157-0.466 0.38-0.652 0.667v0c-0.197 0.305-0.316 0.603-0.358 0.894-0.038 0.285-0.02 0.566 0.054 0.843 0.08 0.28 0.203 0.543 0.37 0.789 0.169 0.256 0.361 0.495 0.577 0.716 0.222 0.225 0.454 0.432 0.698 0.623 0.244 0.19 0.484 0.362 0.72 0.514v0c0.213 0.138 0.455 0.274 0.726 0.409 0.275 0.129 0.56 0.244 0.854 0.344 0.303 0.098 0.608 0.169 0.915 0.212 0.312 0.047 0.615 0.051 0.909 0.013 0.294-0.038 0.564-0.128 0.811-0.27 0.249-0.133 0.463-0.337 0.641-0.613v0c0.19-0.293 0.302-0.587 0.338-0.882 0.032-0.289 0.009-0.569-0.069-0.84-0.078-0.271-0.201-0.534-0.37-0.789-0.169-0.256-0.361-0.495-0.577-0.716-0.222-0.225-0.454-0.432-0.698-0.623-0.25-0.194-0.489-0.365-0.719-0.514z" fill="#ffffff" data-fill-palette-color="primary"></path><path d="M44.365 51.879v0c0.561 0.461 1.091 1.007 1.591 1.638 0.501 0.642 0.943 1.328 1.327 2.059 0.382 0.721 0.694 1.464 0.934 2.229 0.236 0.77 0.372 1.511 0.408 2.223v0l-1.242 0.508c-0.139-0.327-0.309-0.67-0.51-1.029-0.201-0.36-0.431-0.721-0.69-1.086-0.255-0.369-0.532-0.738-0.832-1.108-0.294-0.365-0.594-0.718-0.899-1.057-0.31-0.334-0.618-0.65-0.925-0.945-0.306-0.296-0.603-0.561-0.888-0.796v0c-0.185-0.152-0.388-0.31-0.609-0.473-0.23-0.162-0.47-0.306-0.721-0.433-0.252-0.136-0.508-0.244-0.769-0.325-0.257-0.087-0.511-0.127-0.764-0.122-0.257 0.011-0.507 0.067-0.749 0.168-0.238 0.106-0.456 0.281-0.657 0.524v0c-0.196 0.238-0.316 0.498-0.361 0.78-0.046 0.272-0.041 0.551 0.017 0.838 0.053 0.292 0.152 0.581 0.297 0.868 0.141 0.293 0.304 0.569 0.49 0.828 0.186 0.259 0.38 0.498 0.581 0.716 0.211 0.218 0.407 0.4 0.587 0.549v0l4.175 3.428-2.007 2.445-11.392-9.353 2.001-2.437 4.295 3.526c-0.204-0.69-0.241-1.363-0.111-2.018 0.125-0.659 0.413-1.264 0.865-1.815v0c0.474-0.577 0.979-1.004 1.517-1.28 0.542-0.272 1.096-0.412 1.659-0.418 0.568-0.012 1.139 0.102 1.712 0.342 0.568 0.236 1.125 0.578 1.67 1.026z" fill="#ffffff" data-fill-palette-color="primary"></path><path d="M51.48 38.501l7.497 7.739-2.265 2.194-0.894-0.922c0.087 0.621 0.027 1.204-0.18 1.748-0.207 0.544-0.535 1.033-0.982 1.466v0c-0.59 0.572-1.221 0.978-1.894 1.219-0.662 0.241-1.332 0.337-2.009 0.288-0.672-0.054-1.33-0.246-1.974-0.576-0.649-0.325-1.247-0.77-1.794-1.336v0c-0.543-0.561-0.967-1.17-1.272-1.829-0.309-0.654-0.48-1.318-0.513-1.992-0.028-0.678 0.087-1.347 0.345-2.006 0.267-0.659 0.696-1.275 1.286-1.846v0c0.295-0.286 0.621-0.516 0.977-0.69 0.356-0.173 0.726-0.289 1.109-0.345 0.383-0.057 0.773-0.053 1.17 0.011 0.396 0.064 0.779 0.189 1.149 0.375v0l-0.626-2.654zM52.931 44.561v0c-0.195-0.202-0.41-0.404-0.644-0.606-0.234-0.202-0.483-0.39-0.747-0.564-0.259-0.169-0.528-0.313-0.806-0.434-0.279-0.111-0.564-0.178-0.854-0.203-0.285-0.019-0.567 0.02-0.845 0.117-0.278 0.097-0.542 0.267-0.792 0.511v0c-0.256 0.248-0.434 0.506-0.536 0.776-0.096 0.274-0.14 0.555-0.129 0.84 0.02 0.286 0.083 0.573 0.189 0.861 0.107 0.278 0.243 0.551 0.409 0.82 0.16 0.264 0.338 0.516 0.532 0.756 0.19 0.245 0.38 0.466 0.571 0.663v0c0.191 0.197 0.408 0.396 0.651 0.599 0.234 0.202 0.483 0.39 0.747 0.564 0.259 0.169 0.528 0.313 0.806 0.434 0.284 0.116 0.566 0.186 0.847 0.209 0.285 0.019 0.567-0.015 0.844-0.102 0.277-0.088 0.544-0.255 0.8-0.503v0c0.231-0.224 0.39-0.473 0.477-0.748 0.087-0.265 0.12-0.545 0.1-0.841-0.02-0.296-0.083-0.592-0.189-0.889-0.102-0.292-0.231-0.578-0.386-0.856-0.156-0.269-0.323-0.526-0.503-0.771-0.185-0.24-0.366-0.451-0.542-0.633z" fill="#ffffff" data-fill-palette-color="primary"></path><path d="M66.597 32.49v0c0.443 0.575 0.836 1.227 1.181 1.955 0.343 0.738 0.619 1.506 0.828 2.305 0.21 0.789 0.346 1.583 0.408 2.383 0.057 0.803 0.022 1.556-0.103 2.257v0l-1.325 0.215c-0.062-0.35-0.15-0.723-0.264-1.118-0.114-0.396-0.257-0.8-0.428-1.213-0.165-0.417-0.352-0.839-0.561-1.267-0.204-0.422-0.416-0.833-0.638-1.233-0.227-0.396-0.456-0.772-0.687-1.129-0.232-0.357-0.46-0.682-0.686-0.976v0c-0.146-0.19-0.308-0.389-0.487-0.598-0.188-0.21-0.389-0.405-0.605-0.584-0.215-0.189-0.44-0.353-0.676-0.491-0.231-0.142-0.469-0.239-0.716-0.291-0.253-0.048-0.509-0.049-0.768-0.005-0.256 0.05-0.508 0.171-0.758 0.363v0c-0.244 0.188-0.42 0.414-0.528 0.679-0.106 0.255-0.164 0.528-0.173 0.819-0.014 0.296 0.017 0.6 0.094 0.913 0.071 0.317 0.168 0.622 0.291 0.917 0.123 0.294 0.258 0.571 0.405 0.829 0.157 0.26 0.306 0.482 0.448 0.666v0l3.295 4.282-2.507 1.929-6.572-8.538 0.961-0.739 2.676 1.102c-0.115-0.43-0.174-0.86-0.176-1.29 0.003-0.434 0.059-0.849 0.169-1.245 0.114-0.39 0.289-0.758 0.524-1.103 0.241-0.35 0.546-0.666 0.915-0.95v0c0.591-0.455 1.18-0.757 1.766-0.906 0.59-0.143 1.16-0.154 1.711-0.033 0.556 0.116 1.086 0.356 1.591 0.719 0.5 0.358 0.965 0.817 1.395 1.376z" fill="#ffffff" data-fill-palette-color="primary"></path><path d="M73.524 22.858l1.862-1.129 1.567 10.136c0.174 1.159 0.302 2.335 0.384 3.527 0.072 1.189 0.09 2.368 0.053 3.535v0l-1.443-0.002c-0.011-0.322-0.02-0.693-0.026-1.113-0.01-0.426-0.029-0.86-0.055-1.3-0.032-0.437-0.072-0.865-0.118-1.285-0.052-0.417-0.119-0.785-0.201-1.104v0l-9.569-6.692 2.697-1.634 6.515 4.567z" fill="#ffffff" data-fill-palette-color="primary"></path><path d="M97.201 21.631l0.668 1.569-8.876 3.775-5.258-12.363 3.412-1.452 4.591 10.795z" fill="#ffffff" data-fill-palette-color="primary"></path><path d="M100.695 17.005v0c0.399-0.031 0.789-0.08 1.169-0.148 0.382-0.061 0.763-0.151 1.142-0.269v0c0.392-0.122 0.743-0.274 1.053-0.457 0.311-0.176 0.564-0.39 0.757-0.644 0.194-0.254 0.314-0.546 0.362-0.876 0.052-0.339 0.012-0.724-0.123-1.156v0c-0.11-0.353-0.255-0.659-0.436-0.918-0.19-0.264-0.411-0.468-0.663-0.612-0.248-0.152-0.528-0.245-0.839-0.277-0.309-0.026-0.644 0.017-1.003 0.129v0c-0.34 0.106-0.625 0.262-0.855 0.47-0.229 0.208-0.416 0.448-0.56 0.723-0.138 0.272-0.235 0.571-0.291 0.897-0.065 0.321-0.096 0.65-0.092 0.986-0.005 0.331 0.021 0.657 0.078 0.976 0.058 0.326 0.129 0.623 0.212 0.891v0c0.016 0.052 0.032 0.101 0.046 0.148 0.014 0.046 0.028 0.092 0.043 0.137zM107.489 12.667v0c0.132 0.425 0.18 0.822 0.144 1.192-0.034 0.376-0.13 0.725-0.288 1.047-0.158 0.322-0.365 0.615-0.619 0.88-0.252 0.272-0.539 0.515-0.859 0.73-0.312 0.219-0.647 0.409-1.006 0.571-0.356 0.168-0.708 0.306-1.055 0.414v0c-0.445 0.138-0.896 0.243-1.354 0.313-0.45 0.075-0.905 0.109-1.367 0.102v0c0.187 0.372 0.405 0.713 0.652 1.024 0.254 0.308 0.539 0.557 0.855 0.745 0.325 0.193 0.685 0.311 1.078 0.353 0.395 0.049 0.832 0 1.309-0.148v0c0.314-0.098 0.596-0.239 0.847-0.425 0.259-0.181 0.479-0.396 0.66-0.646 0.189-0.245 0.335-0.513 0.438-0.803 0.108-0.299 0.173-0.609 0.195-0.932v0l1.454 0.075c-0.05 0.532-0.192 1.021-0.426 1.466-0.241 0.448-0.539 0.849-0.896 1.204-0.362 0.356-0.768 0.665-1.217 0.927-0.451 0.255-0.916 0.457-1.393 0.605v0c-0.785 0.244-1.549 0.334-2.293 0.271-0.748-0.054-1.439-0.245-2.071-0.571-0.624-0.322-1.175-0.771-1.655-1.347-0.48-0.575-0.842-1.255-1.086-2.039v0c-0.244-0.785-0.33-1.547-0.259-2.286 0.069-0.746 0.269-1.432 0.598-2.058 0.338-0.621 0.798-1.17 1.382-1.644 0.579-0.467 1.261-0.822 2.045-1.066v0c0.379-0.118 0.776-0.213 1.192-0.285 0.415-0.072 0.827-0.107 1.237-0.104 0.407-0.005 0.807 0.036 1.199 0.121 0.39 0.079 0.751 0.215 1.084 0.406 0.325 0.193 0.619 0.446 0.881 0.759 0.254 0.308 0.452 0.691 0.594 1.149z" fill="#ffffff" data-fill-palette-color="primary"></path><path d="M120.934 6.347l1.82 9.304c0.164 0.84 0.195 1.657 0.093 2.452-0.103 0.795-0.338 1.517-0.706 2.169-0.368 0.651-0.866 1.206-1.496 1.663-0.628 0.465-1.385 0.784-2.272 0.958v0c-0.484 0.095-0.985 0.137-1.503 0.127-0.52-0.017-1.024-0.096-1.512-0.238-0.488-0.142-0.941-0.353-1.359-0.634-0.425-0.28-0.784-0.638-1.079-1.077v0l1.242-0.766c0.173 0.28 0.379 0.526 0.615 0.738 0.237 0.212 0.494 0.385 0.771 0.519 0.277 0.134 0.574 0.223 0.89 0.265 0.315 0.043 0.634 0.033 0.957-0.03v0c0.605-0.118 1.091-0.346 1.457-0.683 0.361-0.329 0.627-0.719 0.796-1.171 0.176-0.453 0.268-0.946 0.276-1.477 0.009-0.525-0.039-1.053-0.142-1.584v0l-0.12-0.615c-0.266 0.568-0.633 1.024-1.104 1.367-0.47 0.343-1.011 0.575-1.622 0.694v0c-0.806 0.158-1.557 0.155-2.252-0.009-0.687-0.159-1.301-0.443-1.842-0.854-0.534-0.412-0.981-0.931-1.341-1.558-0.367-0.626-0.626-1.325-0.777-2.099v0c-0.15-0.766-0.173-1.508-0.069-2.226 0.097-0.717 0.315-1.366 0.654-1.949 0.346-0.584 0.807-1.082 1.382-1.495 0.583-0.407 1.278-0.69 2.085-0.847v0c0.403-0.079 0.801-0.094 1.194-0.046 0.393 0.049 0.766 0.154 1.119 0.315 0.353 0.161 0.677 0.377 0.974 0.647 0.297 0.27 0.55 0.583 0.76 0.94v0l0.921-2.567zM118.848 12.219v0c-0.054-0.276-0.124-0.562-0.21-0.859-0.086-0.297-0.192-0.59-0.318-0.88-0.125-0.283-0.272-0.55-0.44-0.804-0.174-0.245-0.375-0.457-0.606-0.635-0.229-0.172-0.486-0.292-0.772-0.361-0.286-0.07-0.6-0.071-0.942-0.004v0c-0.349 0.068-0.64 0.188-0.872 0.359-0.23 0.178-0.419 0.389-0.567 0.634-0.139 0.251-0.243 0.525-0.309 0.824-0.062 0.291-0.096 0.595-0.105 0.911-0.009 0.309 0.002 0.617 0.035 0.924 0.026 0.309 0.065 0.598 0.117 0.867v0c0.053 0.269 0.126 0.554 0.22 0.857 0.086 0.297 0.192 0.59 0.318 0.88 0.125 0.283 0.272 0.55 0.44 0.803 0.175 0.252 0.373 0.464 0.596 0.637 0.229 0.172 0.484 0.296 0.764 0.374 0.28 0.078 0.595 0.082 0.945 0.014v0c0.316-0.062 0.585-0.184 0.807-0.367 0.217-0.175 0.398-0.392 0.542-0.651 0.145-0.259 0.253-0.541 0.326-0.848 0.074-0.301 0.121-0.61 0.143-0.929 0.016-0.31 0.015-0.617-0.002-0.92-0.024-0.302-0.061-0.578-0.11-0.826z" fill="#ffffff" data-fill-palette-color="primary"></path><path d="M136.364 4.987l0.842 10.741-3.143 0.247-0.101-1.28c-0.329 0.534-0.747 0.945-1.253 1.231-0.506 0.287-1.07 0.455-1.691 0.504v0c-0.819 0.064-1.565-0.025-2.236-0.268-0.664-0.236-1.241-0.59-1.732-1.059-0.483-0.47-0.868-1.038-1.153-1.703-0.292-0.664-0.469-1.388-0.531-2.173v0c-0.061-0.778 0.001-1.518 0.186-2.22 0.179-0.701 0.47-1.321 0.874-1.861 0.411-0.54 0.926-0.983 1.545-1.326 0.626-0.338 1.349-0.538 2.168-0.603v0c0.41-0.032 0.807-0.001 1.192 0.092 0.385 0.093 0.743 0.241 1.075 0.441 0.332 0.201 0.63 0.452 0.894 0.754 0.264 0.302 0.48 0.642 0.646 1.021v0l1.21-2.444zM133.619 10.58v0c-0.022-0.28-0.059-0.572-0.11-0.877-0.051-0.305-0.123-0.609-0.215-0.911-0.092-0.295-0.207-0.578-0.345-0.849-0.144-0.263-0.321-0.497-0.529-0.7-0.208-0.197-0.45-0.346-0.725-0.448-0.276-0.102-0.588-0.139-0.936-0.112v0c-0.355 0.028-0.657 0.113-0.908 0.257-0.249 0.15-0.461 0.338-0.635 0.565-0.167 0.233-0.301 0.494-0.402 0.783-0.095 0.282-0.164 0.58-0.209 0.892-0.045 0.306-0.069 0.613-0.072 0.923-0.01 0.31-0.004 0.601 0.017 0.874v0c0.021 0.273 0.061 0.565 0.121 0.877 0.051 0.305 0.123 0.609 0.215 0.91 0.092 0.295 0.207 0.578 0.345 0.849 0.145 0.27 0.318 0.504 0.518 0.701 0.208 0.197 0.446 0.35 0.716 0.459 0.27 0.109 0.582 0.15 0.937 0.122v0c0.321-0.025 0.602-0.116 0.844-0.272 0.236-0.149 0.44-0.344 0.614-0.584 0.173-0.24 0.314-0.509 0.421-0.805 0.108-0.29 0.191-0.592 0.248-0.906 0.052-0.306 0.086-0.611 0.104-0.915 0.011-0.303 0.006-0.581-0.014-0.833z" fill="#ffffff" data-fill-palette-color="primary"></path><path d="M143.999 3.291l-0.058 12.459-3.153-0.014 0.073-15.736 1.212 0.006z" fill="#ffffff" data-fill-palette-color="primary"></path><path d="M158.584 12.119l-0.736 4.969-3.668-0.544 1.969-13.29 7.183 1.065c0.616 0.091 1.197 0.264 1.741 0.517 0.545 0.247 1.012 0.572 1.402 0.976 0.384 0.396 0.671 0.868 0.86 1.415 0.182 0.546 0.223 1.161 0.121 1.846v0c-0.064 0.434-0.185 0.828-0.362 1.182-0.178 0.361-0.399 0.685-0.663 0.971-0.263 0.279-0.562 0.522-0.897 0.729-0.335 0.206-0.689 0.372-1.06 0.497-0.377 0.117-0.769 0.194-1.176 0.231-0.399 0.031-0.799 0.017-1.199-0.043v0zM163.748 8.523v0c0.126-0.853 0.009-1.556-0.352-2.108-0.36-0.559-0.977-0.903-1.852-1.032v0l-1.92-0.285-0.855 5.771 1.92 0.285c0.467 0.069 0.878 0.054 1.232-0.046 0.348-0.108 0.647-0.278 0.896-0.511 0.25-0.24 0.453-0.535 0.609-0.886 0.15-0.358 0.257-0.754 0.322-1.188z" fill="#ffffff" data-fill-palette-color="primary"></path><path d="M179.776 11.758v0l-2.458 2.397c-0.011-0.258-0.033-0.553-0.067-0.887-0.035-0.328-0.105-0.646-0.208-0.956-0.099-0.301-0.241-0.572-0.426-0.812-0.192-0.241-0.441-0.401-0.745-0.48v0c-0.285-0.074-0.549-0.065-0.793 0.028-0.243 0.092-0.468 0.236-0.674 0.43-0.206 0.194-0.393 0.425-0.562 0.692-0.169 0.268-0.318 0.544-0.448 0.828-0.13 0.284-0.238 0.561-0.322 0.83-0.09 0.267-0.161 0.499-0.213 0.698v0l-1.357 5.229-3.063-0.795 2.708-10.429 1.173 0.305 0.603 2.746c0.274-0.346 0.562-0.653 0.866-0.922 0.298-0.276 0.62-0.493 0.965-0.651 0.347-0.165 0.717-0.267 1.109-0.307 0.392-0.04 0.814-0.001 1.264 0.117v0c0.232 0.06 0.489 0.148 0.77 0.263 0.275 0.114 0.539 0.253 0.793 0.418 0.254 0.165 0.478 0.351 0.673 0.557 0.199 0.214 0.336 0.448 0.412 0.701z" fill="#ffffff" data-fill-palette-color="primary"></path><path d="M193.048 15.605l-3.728 10.11-2.958-1.091 0.444-1.205c-0.522 0.348-1.073 0.546-1.653 0.595-0.58 0.049-1.162-0.034-1.747-0.25v0c-0.771-0.284-1.411-0.677-1.92-1.178-0.504-0.492-0.881-1.055-1.129-1.687-0.242-0.629-0.354-1.306-0.336-2.028 0.012-0.725 0.154-1.458 0.426-2.197v0c0.27-0.732 0.636-1.378 1.098-1.938 0.455-0.562 0.979-1.004 1.572-1.325 0.599-0.319 1.252-0.505 1.958-0.559 0.71-0.045 1.45 0.075 2.221 0.359v0c0.385 0.142 0.734 0.336 1.045 0.582 0.311 0.246 0.575 0.529 0.792 0.851 0.217 0.321 0.383 0.674 0.496 1.058 0.114 0.385 0.167 0.784 0.161 1.198v0l2.12-1.714zM188.215 19.538v0c0.097-0.263 0.186-0.544 0.267-0.843 0.081-0.299 0.143-0.604 0.185-0.917 0.04-0.306 0.054-0.611 0.042-0.915-0.021-0.3-0.083-0.585-0.188-0.858-0.106-0.265-0.264-0.502-0.471-0.71-0.208-0.208-0.476-0.372-0.804-0.493v0c-0.334-0.123-0.645-0.172-0.931-0.146-0.289 0.032-0.56 0.115-0.814 0.247-0.249 0.142-0.48 0.323-0.693 0.544-0.204 0.217-0.391 0.458-0.562 0.723-0.168 0.259-0.319 0.528-0.451 0.808-0.139 0.277-0.255 0.544-0.351 0.801v0c-0.095 0.257-0.181 0.539-0.257 0.847-0.081 0.299-0.143 0.604-0.185 0.917-0.04 0.306-0.054 0.611-0.042 0.915 0.019 0.306 0.078 0.591 0.178 0.854 0.106 0.265 0.259 0.504 0.459 0.716 0.199 0.212 0.466 0.38 0.8 0.503v0c0.302 0.111 0.595 0.147 0.88 0.106 0.276-0.037 0.543-0.128 0.802-0.274 0.258-0.146 0.498-0.331 0.719-0.556 0.219-0.218 0.421-0.458 0.604-0.719 0.175-0.257 0.334-0.519 0.477-0.787 0.136-0.271 0.248-0.525 0.336-0.763z" fill="#ffffff" data-fill-palette-color="primary"></path><path d="M204.935 24.4v0l-1.465-0.126c0.117-0.707 0.029-1.341-0.264-1.902-0.29-0.552-0.757-0.989-1.4-1.311v0c-0.343-0.172-0.675-0.273-0.996-0.304-0.325-0.025-0.635 0.007-0.933 0.095-0.297 0.088-0.579 0.223-0.845 0.403-0.27 0.171-0.52 0.379-0.75 0.624-0.233 0.235-0.445 0.497-0.635 0.784-0.187 0.281-0.351 0.563-0.492 0.845v0c-0.154 0.306-0.293 0.623-0.42 0.95-0.126 0.328-0.218 0.657-0.276 0.987-0.062 0.321-0.088 0.641-0.08 0.96 0.006 0.309 0.067 0.608 0.183 0.896 0.11 0.285 0.278 0.553 0.504 0.805 0.223 0.242 0.518 0.455 0.886 0.64v0c0.294 0.147 0.598 0.243 0.913 0.285 0.312 0.049 0.62 0.047 0.924-0.008 0.3-0.049 0.591-0.14 0.873-0.274 0.291-0.137 0.553-0.316 0.786-0.536v0l0.995 1.062c-0.405 0.349-0.837 0.607-1.296 0.775-0.466 0.165-0.94 0.256-1.424 0.273-0.49 0.015-0.981-0.036-1.475-0.153-0.484-0.12-0.952-0.294-1.404-0.521v0c-0.728-0.365-1.342-0.83-1.841-1.394-0.495-0.555-0.857-1.169-1.086-1.844-0.229-0.674-0.318-1.382-0.268-2.122 0.053-0.747 0.264-1.488 0.632-2.223v0c0.368-0.734 0.836-1.346 1.403-1.835 0.561-0.492 1.177-0.85 1.848-1.073 0.674-0.213 1.385-0.286 2.132-0.217 0.741 0.065 1.482 0.284 2.222 0.655v0c0.465 0.233 0.895 0.514 1.29 0.842 0.398 0.322 0.733 0.685 1.005 1.09 0.272 0.405 0.478 0.849 0.618 1.333 0.137 0.475 0.182 0.988 0.136 1.539z" fill="#ffffff" data-fill-palette-color="primary"></path><path d="M212.14 27.159l-5.045 8.076-2.683-1.677 5.044-8.075-1.655-1.034 0.664-1.063 1.655 1.034 2.101-3.362 2.683 1.676-2.101 3.362 2.771 1.731-0.664 1.062z" fill="#ffffff" data-fill-palette-color="primary"></path><path d="M222.385 29.443v0c-0.135 0.19-0.3 0.345-0.495 0.467-0.196 0.121-0.403 0.201-0.623 0.237-0.21 0.036-0.429 0.031-0.658-0.014-0.225-0.05-0.435-0.145-0.63-0.284v0c-0.19-0.135-0.345-0.3-0.467-0.495-0.112-0.197-0.188-0.403-0.229-0.617-0.032-0.216-0.025-0.438 0.02-0.666 0.05-0.225 0.143-0.432 0.278-0.622v0c0.139-0.195 0.304-0.351 0.495-0.467 0.201-0.117 0.407-0.194 0.617-0.229 0.22-0.037 0.439-0.032 0.658 0.014 0.225 0.05 0.432 0.143 0.622 0.278v0c0.195 0.139 0.354 0.306 0.475 0.501 0.121 0.196 0.198 0.401 0.229 0.617 0.041 0.214 0.036 0.433-0.014 0.658-0.046 0.219-0.139 0.426-0.278 0.622zM220.765 31.492l-6.237 8.773-2.578-1.832 6.236-8.774z" fill="#ffffff" data-fill-palette-color="primary"></path><path d="M226.579 37.786l-6.082 7.326-2.434-2.021 6.082-7.326-1.502-1.246 0.801-0.964 1.501 1.246 2.533-3.05 2.434 2.02-2.533 3.051 2.513 2.086-0.8 0.964z" fill="#ffffff" data-fill-palette-color="primary"></path><path d="M236.426 41.425v0c-0.159 0.17-0.344 0.302-0.554 0.396-0.21 0.094-0.426 0.145-0.649 0.152-0.213 0.007-0.43-0.027-0.65-0.102-0.216-0.08-0.411-0.202-0.586-0.366v0c-0.17-0.159-0.302-0.344-0.396-0.554-0.084-0.21-0.133-0.424-0.145-0.642-0.002-0.218 0.034-0.437 0.11-0.658 0.08-0.216 0.2-0.409 0.359-0.578v0c0.164-0.175 0.348-0.307 0.553-0.396 0.215-0.089 0.429-0.138 0.642-0.145 0.223-0.007 0.439 0.027 0.651 0.103 0.216 0.08 0.409 0.2 0.578 0.358v0c0.175 0.164 0.309 0.351 0.404 0.561 0.094 0.21 0.142 0.424 0.144 0.642 0.012 0.218-0.022 0.434-0.102 0.65-0.075 0.211-0.195 0.404-0.359 0.579zM234.545 43.238l-7.358 7.856-2.309-2.162 7.358-7.857z" fill="#ffffff" data-fill-palette-color="primary"></path><path d="M241.259 58.549v0c-0.419 0.374-0.862 0.669-1.331 0.885-0.468 0.216-0.942 0.364-1.421 0.444-0.489 0.079-0.982 0.092-1.479 0.04-0.496-0.062-0.979-0.181-1.45-0.358-0.47-0.177-0.92-0.413-1.349-0.709-0.429-0.296-0.822-0.643-1.178-1.041v0c-0.356-0.398-0.654-0.825-0.895-1.28-0.246-0.46-0.43-0.934-0.553-1.421-0.123-0.487-0.185-0.978-0.186-1.472-0.001-0.504 0.068-0.993 0.206-1.466 0.129-0.473 0.329-0.932 0.602-1.377 0.267-0.441 0.608-0.846 1.021-1.215v0c0.414-0.369 0.855-0.662 1.323-0.879 0.468-0.216 0.947-0.364 1.436-0.442 0.485-0.084 0.975-0.095 1.471-0.034 0.497 0.052 0.977 0.169 1.443 0.351 0.47 0.177 0.92 0.413 1.349 0.709 0.425 0.291 0.815 0.635 1.171 1.033v0c0.356 0.398 0.657 0.828 0.902 1.288 0.246 0.46 0.43 0.934 0.553 1.42 0.128 0.482 0.192 0.976 0.193 1.481 0.001 0.495-0.065 0.981-0.199 1.458-0.138 0.472-0.341 0.929-0.608 1.37-0.267 0.441-0.608 0.846-1.021 1.215zM239.124 56.159v0c0.22-0.196 0.443-0.419 0.67-0.668 0.222-0.244 0.426-0.505 0.612-0.78 0.185-0.276 0.34-0.565 0.463-0.869 0.128-0.298 0.206-0.597 0.233-0.896 0.032-0.304 0-0.606-0.095-0.907-0.085-0.301-0.255-0.594-0.51-0.88v0c-0.237-0.266-0.5-0.457-0.79-0.576-0.289-0.118-0.589-0.181-0.898-0.189-0.305-0.003-0.616 0.045-0.932 0.144-0.321 0.093-0.628 0.212-0.922 0.356-0.295 0.153-0.578 0.324-0.851 0.512-0.268 0.193-0.507 0.384-0.716 0.57v0c-0.214 0.192-0.433 0.41-0.656 0.655-0.213 0.245-0.414 0.508-0.604 0.787-0.181 0.281-0.333 0.573-0.457 0.877-0.128 0.298-0.208 0.599-0.24 0.903-0.027 0.309 0.002 0.614 0.087 0.914 0.085 0.301 0.246 0.584 0.483 0.849v0c0.251 0.281 0.518 0.483 0.802 0.606 0.294 0.123 0.593 0.191 0.898 0.203 0.305 0.003 0.613-0.043 0.924-0.137 0.306-0.089 0.609-0.213 0.909-0.371 0.299-0.148 0.583-0.319 0.851-0.512 0.268-0.193 0.514-0.391 0.739-0.591z" fill="#ffffff" data-fill-palette-color="primary"></path><path d="M250.285 69.791v0c-0.591 0.421-1.257 0.79-1.998 1.108-0.75 0.316-1.528 0.563-2.334 0.741-0.796 0.18-1.595 0.287-2.396 0.319-0.805 0.027-1.555-0.036-2.251-0.187v0l-0.167-1.332c0.352-0.049 0.728-0.123 1.128-0.222 0.4-0.1 0.809-0.227 1.228-0.383 0.423-0.15 0.852-0.321 1.286-0.513 0.429-0.188 0.848-0.385 1.256-0.591 0.404-0.212 0.789-0.427 1.154-0.646 0.366-0.218 0.699-0.435 1.001-0.649v0c0.195-0.139 0.4-0.294 0.615-0.464 0.217-0.18 0.419-0.374 0.607-0.583 0.197-0.207 0.369-0.427 0.515-0.657 0.151-0.225 0.257-0.46 0.318-0.705 0.057-0.251 0.068-0.507 0.033-0.768-0.04-0.257-0.152-0.514-0.334-0.771v0c-0.179-0.251-0.398-0.435-0.659-0.552-0.251-0.116-0.522-0.183-0.813-0.203-0.295-0.025-0.601-0.005-0.916 0.059-0.319 0.059-0.628 0.145-0.926 0.257-0.299 0.112-0.58 0.236-0.844 0.374-0.265 0.147-0.493 0.288-0.682 0.423v0l-4.401 3.134-1.835-2.577 8.776-6.25 0.703 0.987-1.201 2.633c0.434-0.099 0.866-0.142 1.296-0.128 0.434 0.019 0.846 0.091 1.238 0.216 0.386 0.129 0.747 0.317 1.083 0.565 0.34 0.254 0.646 0.57 0.916 0.949v0c0.433 0.608 0.713 1.207 0.839 1.798 0.121 0.595 0.111 1.165-0.03 1.711-0.137 0.551-0.396 1.072-0.779 1.563-0.376 0.487-0.852 0.934-1.426 1.344z" fill="#ffffff" data-fill-palette-color="primary"></path><path d="M252.396 75.663v0c0.112 0.384 0.24 0.756 0.384 1.115 0.138 0.362 0.304 0.716 0.496 1.063v0c0.199 0.359 0.42 0.671 0.661 0.937 0.235 0.269 0.497 0.472 0.786 0.61 0.288 0.138 0.599 0.196 0.931 0.176 0.343-0.018 0.711-0.137 1.107-0.356v0c0.323-0.18 0.593-0.384 0.81-0.615 0.22-0.239 0.374-0.497 0.463-0.774 0.098-0.274 0.132-0.567 0.1-0.878-0.038-0.308-0.148-0.627-0.331-0.955v0c-0.173-0.311-0.384-0.558-0.634-0.741-0.25-0.182-0.524-0.316-0.822-0.401-0.295-0.079-0.607-0.113-0.938-0.102-0.328 0.002-0.656 0.039-0.984 0.112-0.325 0.063-0.639 0.155-0.94 0.275-0.307 0.124-0.584 0.254-0.829 0.39v0c-0.048 0.027-0.093 0.052-0.135 0.075-0.042 0.023-0.084 0.047-0.125 0.069zM258.029 81.429v0c-0.389 0.216-0.768 0.344-1.137 0.385-0.375 0.044-0.736 0.021-1.084-0.068-0.347-0.089-0.677-0.231-0.988-0.427-0.318-0.192-0.614-0.422-0.89-0.692-0.278-0.261-0.533-0.55-0.764-0.868-0.237-0.315-0.444-0.631-0.62-0.948v0c-0.226-0.407-0.421-0.828-0.584-1.262-0.166-0.425-0.292-0.864-0.378-1.317v0c-0.326 0.259-0.616 0.542-0.87 0.847-0.25 0.311-0.435 0.641-0.554 0.989-0.122 0.358-0.164 0.734-0.126 1.128 0.033 0.397 0.17 0.814 0.412 1.251v0c0.16 0.287 0.356 0.535 0.589 0.742 0.23 0.217 0.486 0.388 0.767 0.514 0.279 0.135 0.571 0.224 0.876 0.265 0.315 0.045 0.632 0.045 0.952 0.001v0l0.223 1.438c-0.531 0.06-1.038 0.02-1.523-0.118-0.487-0.144-0.941-0.355-1.36-0.63-0.423-0.282-0.808-0.616-1.156-1.003-0.342-0.39-0.634-0.803-0.877-1.241v0c-0.399-0.718-0.644-1.448-0.734-2.189-0.1-0.744-0.054-1.458 0.137-2.143 0.188-0.676 0.515-1.308 0.98-1.896 0.465-0.587 1.057-1.08 1.775-1.479v0c0.718-0.399 1.447-0.639 2.185-0.72 0.744-0.084 1.456-0.029 2.136 0.165 0.677 0.204 1.308 0.543 1.893 1.017 0.575 0.472 1.062 1.067 1.461 1.785v0c0.193 0.347 0.367 0.717 0.521 1.109 0.155 0.392 0.273 0.788 0.355 1.189 0.088 0.398 0.13 0.797 0.126 1.199 0.002 0.398-0.057 0.779-0.176 1.143-0.122 0.358-0.31 0.697-0.563 1.018-0.25 0.311-0.585 0.583-1.004 0.816z" fill="#ffffff" data-fill-palette-color="primary"></path><path d="M265.498 92.045v0l-3.402-0.466c0.196-0.167 0.416-0.366 0.659-0.598 0.237-0.229 0.445-0.48 0.627-0.752 0.177-0.263 0.303-0.541 0.377-0.834 0.072-0.3 0.045-0.594-0.079-0.884v0c-0.117-0.27-0.286-0.473-0.509-0.608-0.222-0.135-0.474-0.224-0.753-0.267-0.28-0.043-0.577-0.049-0.892-0.018-0.315 0.032-0.624 0.083-0.929 0.155-0.305 0.072-0.588 0.157-0.851 0.257-0.266 0.092-0.493 0.179-0.682 0.261v0l-4.959 2.143-1.255-2.904 9.89-4.274 0.481 1.112-1.795 2.164c0.441 0.003 0.861 0.042 1.258 0.116 0.401 0.065 0.77 0.186 1.107 0.361 0.343 0.173 0.651 0.401 0.924 0.686 0.272 0.285 0.501 0.641 0.685 1.069v0c0.095 0.22 0.183 0.476 0.266 0.769 0.079 0.287 0.132 0.581 0.157 0.883 0.026 0.302 0.018 0.593-0.025 0.873-0.047 0.289-0.147 0.541-0.3 0.756z" fill="#ffffff" data-fill-palette-color="primary"></path><path d="M263.276 105.804v0c-0.45 0.145-0.871 0.21-1.265 0.194-0.387-0.019-0.748-0.1-1.083-0.244-0.326-0.139-0.627-0.337-0.904-0.592-0.275-0.249-0.522-0.533-0.74-0.851-0.218-0.318-0.415-0.661-0.592-1.029-0.17-0.37-0.316-0.743-0.438-1.121v0c-0.164-0.508-0.277-0.968-0.339-1.38-0.061-0.412-0.077-0.817-0.048-1.215 0.034-0.407 0.108-0.823 0.222-1.249 0.114-0.426 0.268-0.907 0.461-1.444v0l1.993 1.287c-0.249 0.253-0.454 0.554-0.615 0.901-0.157 0.339-0.277 0.68-0.36 1.023-0.092 0.339-0.14 0.657-0.145 0.954-0.011 0.299 0.009 0.53 0.062 0.692v0c0.044 0.137 0.101 0.291 0.172 0.463 0.061 0.167 0.134 0.335 0.216 0.502 0.083 0.167 0.179 0.331 0.288 0.49 0.107 0.153 0.23 0.278 0.37 0.377 0.135 0.107 0.284 0.178 0.447 0.211 0.162 0.034 0.341 0.019 0.536-0.044v0c0.202-0.065 0.362-0.171 0.48-0.317 0.116-0.153 0.205-0.333 0.268-0.54 0.058-0.199 0.091-0.418 0.1-0.659 0.009-0.24 0.007-0.477-0.003-0.711-0.011-0.234-0.026-0.459-0.046-0.676-0.026-0.215-0.04-0.401-0.041-0.559v0c-0.01-0.299-0.025-0.611-0.044-0.936-0.021-0.332-0.027-0.661-0.017-0.987 0.007-0.333 0.039-0.657 0.096-0.971 0.05-0.311 0.143-0.604 0.277-0.878 0.13-0.265 0.313-0.501 0.549-0.706 0.227-0.21 0.52-0.373 0.878-0.49v0c0.665-0.215 1.264-0.265 1.798-0.149 0.529 0.124 0.997 0.357 1.403 0.7 0.413 0.341 0.764 0.771 1.054 1.289 0.288 0.511 0.524 1.05 0.707 1.618v0c0.127 0.391 0.221 0.817 0.285 1.279 0.061 0.455 0.08 0.913 0.056 1.374-0.026 0.455-0.094 0.898-0.207 1.33-0.108 0.423-0.269 0.803-0.484 1.139v0l-2.003-1.284c0.31-0.244 0.56-0.516 0.751-0.815 0.187-0.291 0.321-0.586 0.404-0.887 0.085-0.294 0.121-0.583 0.109-0.866-0.004-0.279-0.042-0.53-0.114-0.751v0c-0.067-0.208-0.154-0.443-0.26-0.704-0.099-0.263-0.23-0.498-0.39-0.705-0.161-0.207-0.352-0.365-0.574-0.473-0.222-0.108-0.48-0.115-0.773-0.02v0c-0.215 0.07-0.382 0.177-0.5 0.324-0.118 0.146-0.206 0.319-0.264 0.517-0.06 0.192-0.093 0.401-0.1 0.626-0.004 0.232-0.002 0.461 0.007 0.689 0.017 0.232 0.036 0.456 0.056 0.673 0.026 0.215 0.042 0.407 0.047 0.578v0c0.01 0.299 0.023 0.615 0.037 0.949 0.021 0.332 0.027 0.661 0.017 0.988-0.007 0.333-0.035 0.659-0.083 0.977-0.048 0.318-0.14 0.614-0.274 0.887-0.134 0.274-0.315 0.516-0.542 0.727-0.234 0.212-0.533 0.378-0.898 0.495z" fill="#ffffff" data-fill-palette-color="primary"></path><path d="M9.38 140.429c0-0.996 0.807-1.803 1.803-1.803 0.996 0 1.803 0.807 1.803 1.803 0 0.996-0.807 1.803-1.803 1.804-0.996 0-1.803-0.807-1.803-1.804z" fill="#ffffff" data-fill-palette-color="primary"></path><path d="M267.963 140.429c0-0.996 0.807-1.803 1.804-1.803 0.996 0 1.803 0.807 1.803 1.803 0 0.996-0.807 1.803-1.803 1.804-0.996 0-1.803-0.807-1.804-1.804z" fill="#ffffff" data-fill-palette-color="primary"></path></g><g id="text-1"><path d="M26.437 177.328c0.224 0.741 0.299 1.43 0.228 2.067-0.072 0.637-0.278 1.293-0.619 1.968v0l-1.907-0.809c0.223-0.468 0.362-0.896 0.417-1.284 0.054-0.388 0.021-0.782-0.1-1.183v0c-0.253-0.839-0.868-1.369-1.842-1.589-0.982-0.219-2.452-0.032-4.413 0.56v0c-1.934 0.584-3.252 1.24-3.955 1.967-0.697 0.725-0.914 1.521-0.653 2.386v0c0.131 0.433 0.33 0.784 0.597 1.054 0.274 0.268 0.656 0.56 1.145 0.877v0l-1.079 1.721c-0.633-0.295-1.208-0.708-1.726-1.239-0.516-0.524-0.892-1.176-1.127-1.955v0c-0.493-1.632-0.251-3.118 0.725-4.457 0.981-1.348 2.723-2.4 5.227-3.156v0c1.658-0.501 3.114-0.69 4.367-0.568 1.255 0.129 2.275 0.511 3.061 1.146 0.792 0.633 1.344 1.465 1.654 2.494z" fill="#ffffff" data-fill-palette-color="primary"></path><path d="M26.725 188.688c0.121 0.313 0.18 0.609 0.178 0.889v0l-2.551 0.522c-0.042-0.299-0.108-0.564-0.196-0.794v0c-0.2-0.517-0.58-0.837-1.141-0.958-0.563-0.128-1.317-0.104-2.263 0.07v0l-5.922 2.285-0.965-2.501 10.771-4.157 0.839 2.176-1.808 0.907c1.619-0.045 2.639 0.475 3.058 1.561z" fill="#ffffff" data-fill-palette-color="primary"></path><path d="M26.148 201.092c-0.118 0.056-0.462 0.193-1.033 0.411v0l-2.549-5.373c-1.053 0.56-1.717 1.102-1.991 1.626-0.274 0.524-0.271 1.083 0.011 1.677v0c0.194 0.408 0.436 0.744 0.728 1.008 0.292 0.263 0.679 0.512 1.161 0.745v0l-0.894 1.663c-1.334-0.496-2.307-1.388-2.917-2.675v0c-0.649-1.367-0.673-2.64-0.072-3.819 0.6-1.179 1.76-2.176 3.48-2.992v0c1.72-0.816 3.247-1.112 4.581-0.889 1.325 0.22 2.289 0.968 2.894 2.243v0c0.581 1.225 0.591 2.388 0.028 3.488-0.559 1.106-1.702 2.069-3.427 2.887zM25.601 198.453l0.139-0.066c0.984-0.467 1.646-0.925 1.986-1.374 0.343-0.458 0.392-0.948 0.145-1.467v0c-0.232-0.489-0.632-0.757-1.201-0.806-0.56-0.045-1.402 0.168-2.526 0.641v0z" fill="#ffffff" data-fill-palette-color="primary"></path><path d="M28.496 211.619c-0.325 0.19-0.542 0.376-0.649 0.558-0.102 0.179-0.144 0.398-0.127 0.657v0l-1.827 0.438c-0.239-0.558-0.342-1.053-0.309-1.486 0.033-0.432 0.228-0.851 0.585-1.258v0c-1.296-0.019-2.249-0.549-2.857-1.59v0c-0.484-0.828-0.588-1.651-0.313-2.469 0.269-0.816 0.867-1.495 1.795-2.038v0c1.082-0.632 2.103-0.778 3.065-0.435 0.952 0.34 1.803 1.151 2.553 2.434v0l0.451 0.771 0.701-0.409c0.627-0.366 1.003-0.733 1.129-1.101 0.132-0.371 0.055-0.801-0.232-1.292v0c-0.346-0.591-0.938-1.232-1.778-1.923v0l1.201-1.404c0.518 0.371 0.994 0.791 1.427 1.26 0.436 0.475 0.796 0.954 1.079 1.439v0c1.279 2.187 0.813 3.927-1.398 5.22v0zM25.351 208.579c0.352 0.603 1.034 0.819 2.045 0.649v0l2.093-1.223-0.322-0.55c-0.373-0.638-0.791-1.021-1.253-1.147-0.462-0.126-0.995-0.013-1.598 0.339v0c-0.514 0.301-0.85 0.616-1.006 0.945-0.162 0.333-0.148 0.662 0.041 0.987z" fill="#ffffff" data-fill-palette-color="primary"></path><path d="M32.857 219.151l-0.826 1.711c-0.873-0.261-1.583-0.785-2.129-1.573v0c-0.574-0.827-0.773-1.618-0.597-2.373 0.172-0.761 0.663-1.423 1.473-1.985v0l5.527-3.836-0.767-1.106 1.594-1.107 0.768 1.106 2.092-1.452 1.805 2.023-2.363 1.64 1.242 1.789-1.748 0.887-1.089-1.569-5.527 3.836c-0.574 0.398-0.691 0.842-0.351 1.331v0c0.105 0.152 0.222 0.271 0.349 0.358 0.125 0.096 0.308 0.203 0.547 0.32z" fill="#ffffff" data-fill-palette-color="primary"></path><path d="M42.23 216.079l1.631 2.128-9.163 7.024-1.631-2.128zM47.607 213.64c0.292 0.38 0.407 0.779 0.347 1.196-0.061 0.427-0.282 0.786-0.662 1.077v0c-0.37 0.283-0.768 0.399-1.196 0.348-0.418-0.05-0.773-0.266-1.065-0.646v0c-0.292-0.38-0.409-0.782-0.354-1.205 0.061-0.427 0.277-0.782 0.647-1.065v0c0.38-0.292 0.785-0.412 1.212-0.359 0.422 0.056 0.779 0.274 1.071 0.654z" fill="#ffffff" data-fill-palette-color="primary"></path><path d="M49.467 224.646l1.751 1.975-10.635 5.408-2.098-2.367 6.579-9.98 1.84 2.075-5.763 7.65z" fill="#ffffff" data-fill-palette-color="primary"></path><path d="M54.641 237.601c-0.09 0.094-0.364 0.343-0.821 0.748v0l-4.281-4.128c-0.788 0.896-1.217 1.637-1.289 2.225-0.072 0.587 0.129 1.109 0.602 1.565v0c0.325 0.314 0.671 0.542 1.037 0.686 0.366 0.143 0.816 0.239 1.349 0.288v0l-0.249 1.871c-1.424 0.007-2.648-0.485-3.674-1.473v0c-1.089-1.05-1.561-2.233-1.415-3.548 0.146-1.315 0.879-2.658 2.2-4.028v0c1.321-1.37 2.646-2.186 3.972-2.448 1.317-0.261 2.484 0.098 3.5 1.077v0c0.976 0.941 1.395 2.026 1.257 3.253-0.133 1.232-0.862 2.536-2.188 3.912zM53.198 235.324l0.107-0.111c0.756-0.784 1.213-1.446 1.373-1.986 0.159-0.55 0.032-1.025-0.382-1.424v0c-0.389-0.375-0.859-0.486-1.408-0.331-0.54 0.155-1.252 0.652-2.137 1.492v0z" fill="#ffffff" data-fill-palette-color="primary"></path><path d="M69.674 237.623c0.705 0.521 1.235 1.1 1.59 1.737 0.357 0.647 0.582 1.384 0.677 2.212v0l-1.92 0.42c-0.118-0.589-0.289-1.095-0.514-1.517-0.229-0.416-0.536-0.767-0.921-1.051v0c-0.441-0.326-0.89-0.449-1.349-0.371-0.462 0.084-0.858 0.349-1.188 0.795v0c-0.33 0.446-0.463 0.909-0.401 1.39 0.062 0.48 0.372 1.161 0.931 2.042v0c0.707 1.152 1.093 2.179 1.16 3.079 0.067 0.901-0.273 1.855-1.018 2.863v0c-0.509 0.688-1.132 1.198-1.871 1.529-0.733 0.335-1.514 0.448-2.343 0.337-0.833-0.105-1.644-0.449-2.432-1.031v0c-0.804-0.594-1.4-1.256-1.789-1.986-0.383-0.726-0.624-1.534-0.723-2.425v0l2.027-0.393c0.146 0.678 0.336 1.262 0.571 1.751 0.239 0.483 0.587 0.894 1.044 1.231v0c0.54 0.399 1.082 0.54 1.628 0.424 0.542-0.111 1.024-0.452 1.447-1.025v0c0.374-0.507 0.55-1.015 0.527-1.526-0.024-0.52-0.297-1.177-0.817-1.97v0c-0.752-1.229-1.158-2.299-1.216-3.211-0.058-0.912 0.224-1.789 0.847-2.631v0c0.476-0.644 1.054-1.103 1.732-1.376 0.679-0.273 1.399-0.349 2.162-0.229 0.762 0.121 1.482 0.431 2.159 0.932z" fill="#ffffff" data-fill-palette-color="primary"></path><path d="M72.155 255.183l-0.086 1.897c-0.905 0.103-1.764-0.099-2.576-0.608v0c-0.853-0.535-1.347-1.184-1.483-1.948-0.141-0.767 0.05-1.569 0.574-2.404v0l3.573-5.701-1.14-0.714 1.03-1.645 1.141 0.714 1.352-2.158 2.455 1.151-1.527 2.437 1.845 1.156-1.257 1.503-1.619-1.015-3.573 5.701c-0.371 0.592-0.304 1.046 0.201 1.362v0c0.157 0.098 0.31 0.162 0.461 0.193 0.153 0.039 0.363 0.066 0.629 0.079z" fill="#ffffff" data-fill-palette-color="primary"></path><path d="M84.108 250.835c0.294 0.162 0.53 0.35 0.709 0.566v0l-1.614 2.043c-0.225-0.202-0.446-0.362-0.662-0.481v0c-0.486-0.267-0.983-0.266-1.489 0.003-0.513 0.265-1.075 0.769-1.686 1.511v0l-3.055 5.564-2.35-1.29 5.557-10.12 2.044 1.123-0.798 1.858c1.209-1.078 2.324-1.337 3.344-0.777z" fill="#ffffff" data-fill-palette-color="primary"></path><path d="M89.539 263.293c-0.156 0.343-0.226 0.619-0.209 0.83 0.02 0.205 0.111 0.408 0.275 0.611v0l-1.241 1.41c-0.517-0.318-0.887-0.664-1.108-1.036-0.222-0.372-0.304-0.827-0.247-1.366v0c-1.071 0.731-2.154 0.847-3.251 0.347v0c-0.872-0.398-1.432-1.01-1.68-1.837-0.25-0.821-0.152-1.721 0.294-2.7v0c0.52-1.14 1.271-1.848 2.254-2.122 0.974-0.271 2.137-0.098 3.489 0.518v0l0.813 0.37 0.336-0.738c0.301-0.66 0.397-1.177 0.289-1.55-0.106-0.379-0.417-0.687-0.934-0.923v0c-0.623-0.284-1.477-0.466-2.562-0.546v0l0.173-1.84c0.638 0.005 1.268 0.074 1.892 0.207 0.63 0.137 1.201 0.321 1.712 0.555v0c2.305 1.051 2.927 2.741 1.865 5.071v0zM85.217 262.621c0.636 0.29 1.317 0.074 2.045-0.648v0l1.006-2.206-0.58-0.264c-0.673-0.307-1.235-0.378-1.685-0.215-0.451 0.163-0.821 0.563-1.111 1.198v0c-0.247 0.542-0.34 0.993-0.277 1.353 0.059 0.366 0.26 0.626 0.602 0.782z" fill="#ffffff" data-fill-palette-color="primary"></path><path d="M97.445 266.935l0.311 1.874c-0.864 0.29-1.746 0.271-2.646-0.058v0c-0.946-0.345-1.564-0.877-1.857-1.595-0.298-0.721-0.278-1.545 0.06-2.472v0l2.305-6.32-1.264-0.461 0.666-1.824 1.264 0.461 0.873-2.393 2.64 0.614-0.985 2.702 2.045 0.746-0.916 1.732-1.794-0.655-2.306 6.321c-0.239 0.656-0.079 1.086 0.481 1.29v0c0.174 0.063 0.337 0.094 0.491 0.092 0.158 0.007 0.369-0.011 0.632-0.054z" fill="#ffffff" data-fill-palette-color="primary"></path><path d="M109.6 266.533c-0.036 0.125-0.162 0.474-0.377 1.046v0l-5.714-1.65c-0.278 1.16-0.311 2.016-0.1 2.569 0.211 0.553 0.632 0.92 1.264 1.103v0c0.434 0.125 0.847 0.166 1.237 0.122 0.39-0.044 0.833-0.169 1.327-0.376v0l0.654 1.771c-1.256 0.671-2.568 0.809-3.936 0.414v0c-1.454-0.42-2.424-1.245-2.91-2.476-0.486-1.231-0.464-2.761 0.064-4.59v0c0.528-1.829 1.318-3.169 2.369-4.02 1.043-0.846 2.242-1.074 3.597-0.682v0c1.303 0.376 2.18 1.139 2.632 2.288 0.459 1.152 0.423 2.645-0.107 4.481zM107.26 265.195l0.043-0.148c0.302-1.046 0.397-1.845 0.286-2.398-0.116-0.561-0.45-0.921-1.003-1.081v0c-0.52-0.15-0.986-0.028-1.399 0.366-0.405 0.389-0.802 1.162-1.194 2.317v0z" fill="#ffffff" data-fill-palette-color="primary"></path><path d="M121.458 261.763l0.26 2.164c-0.323 0.084-0.702 0.115-1.137 0.093-0.434-0.028-0.964-0.103-1.589-0.224v0c0.544 0.398 0.916 0.868 1.118 1.409 0.197 0.533 0.227 1.15 0.092 1.849v0c-0.222 1.143-0.75 1.996-1.584 2.56-0.835 0.564-1.85 0.729-3.047 0.497v0c-0.356-0.069-0.712-0.197-1.066-0.384v0c-0.297 0.166-0.482 0.433-0.553 0.803v0c-0.055 0.282-0.016 0.513 0.117 0.692 0.127 0.171 0.406 0.298 0.836 0.382v0l1.2 0.232c1.143 0.222 1.99 0.693 2.54 1.414 0.558 0.722 0.748 1.54 0.571 2.454v0c-0.211 1.089-0.796 1.875-1.755 2.359-0.96 0.491-2.213 0.586-3.759 0.286v0c-1.627-0.315-2.705-0.835-3.234-1.558-0.535-0.731-0.69-1.675-0.466-2.831v0l2.329 0.451c-0.12 0.618-0.06 1.083 0.18 1.395 0.233 0.31 0.756 0.544 1.569 0.702v0c0.787 0.152 1.371 0.126 1.752-0.079 0.382-0.205 0.621-0.56 0.719-1.064v0c0.094-0.484 0.028-0.866-0.196-1.147-0.231-0.282-0.633-0.478-1.204-0.589v0l-0.807-0.156c-1.089-0.211-1.845-0.556-2.268-1.036-0.429-0.488-0.578-1.068-0.448-1.74v0c0.074-0.383 0.249-0.729 0.526-1.039 0.276-0.309 0.618-0.564 1.027-0.763v0c-0.512-0.49-0.853-1.016-1.023-1.58-0.177-0.564-0.193-1.22-0.048-1.965v0c0.241-1.244 0.804-2.153 1.69-2.728 0.879-0.576 1.947-0.742 3.204-0.498v0c0.928 0.18 1.714 0.228 2.358 0.143 0.651-0.083 1.35-0.251 2.096-0.504zM116.664 263.878c-0.497-0.096-0.908 0.009-1.233 0.316-0.331 0.305-0.572 0.845-0.722 1.618v0c-0.141 0.726-0.118 1.313 0.067 1.76 0.18 0.439 0.512 0.706 0.996 0.8v0c0.497 0.096 0.901-0.007 1.211-0.31 0.316-0.301 0.555-0.865 0.715-1.692v0c0.15-0.773 0.141-1.357-0.027-1.752-0.174-0.396-0.51-0.643-1.007-0.74z" fill="#ffffff" data-fill-palette-color="primary"></path><path d="M131.681 264.437l-4.295 11.184c-0.527 1.348-1.252 2.374-2.177 3.079-0.931 0.704-2.105 1.044-3.521 1.019v0l-0.089-1.922c0.925-0.085 1.639-0.309 2.14-0.674 0.502-0.365 0.929-0.966 1.283-1.802v0l-0.991-0.109-1.652-11.795 2.716 0.298 0.846 9.909 3.096-9.477z" fill="#ffffff" data-fill-palette-color="primary"></path><path d="M134.31 273.066c0.492 0.025 0.884 0.21 1.174 0.554 0.29 0.351 0.424 0.759 0.4 1.224v0c-0.024 0.465-0.199 0.857-0.524 1.177-0.325 0.319-0.734 0.466-1.226 0.44v0c-0.479-0.025-0.863-0.213-1.154-0.564-0.297-0.351-0.434-0.76-0.409-1.224v0c0.024-0.465 0.202-0.857 0.534-1.176 0.325-0.312 0.726-0.456 1.205-0.431z" fill="#ffffff" data-fill-palette-color="primary"></path><path d="M144.038 261.129l7.479-0.374-0.184 2.086-4.421 0.222 0.216 4.318 3.857-0.193 0.102 2.042-3.857 0.193 0.227 4.534 4.709-0.236 0.104 2.093-7.478 0.374z" fill="#ffffff" data-fill-palette-color="primary"></path><path d="M157.967 260.551c-0.401 0.053-0.685 0.201-0.853 0.444-0.168 0.243-0.223 0.589-0.163 1.037v0l0.202 1.528 2.189-0.289-0.051 1.965-1.884 0.248 1.258 9.521-2.658 0.351-1.258-9.52-1.425 0.188-0.255-1.925 1.426-0.188-0.191-1.446c-0.137-1.039 0.055-1.907 0.578-2.604 0.523-0.698 1.347-1.121 2.474-1.27v0c0.883-0.117 1.763-0.015 2.641 0.304v0l-0.505 1.828c-0.541-0.177-1.05-0.234-1.525-0.172z" fill="#ffffff" data-fill-palette-color="primary"></path><path d="M164.862 259.336c-0.397 0.076-0.672 0.24-0.826 0.493-0.154 0.253-0.188 0.601-0.103 1.045v0l0.29 1.513 2.169-0.416 0.063 1.965-1.866 0.357 1.808 9.432-2.633 0.505-1.808-9.432-1.413 0.271-0.365-1.907 1.412-0.271-0.274-1.432c-0.197-1.029-0.055-1.907 0.425-2.633 0.481-0.727 1.28-1.197 2.397-1.412v0c0.874-0.168 1.759-0.118 2.654 0.151v0l-0.398 1.854c-0.551-0.145-1.062-0.173-1.532-0.083z" fill="#ffffff" data-fill-palette-color="primary"></path><path d="M177.589 264.828c0.032 0.126 0.101 0.49 0.207 1.092v0l-5.759 1.484c0.35 1.14 0.757 1.895 1.219 2.263 0.463 0.369 1.012 0.471 1.649 0.307v0c0.438-0.113 0.813-0.287 1.127-0.524 0.314-0.236 0.631-0.569 0.952-0.998v0l1.464 1.193c-0.74 1.216-1.8 2.002-3.18 2.357v0c-1.465 0.377-2.72 0.16-3.764-0.654-1.044-0.813-1.803-2.141-2.278-3.984v0c-0.475-1.843-0.476-3.399-0.003-4.666 0.468-1.259 1.385-2.064 2.751-2.416v0c1.313-0.338 2.456-0.127 3.43 0.633 0.98 0.759 1.709 2.063 2.185 3.913zM174.894 264.865l-0.039-0.15c-0.272-1.054-0.596-1.791-0.972-2.21-0.385-0.424-0.856-0.564-1.413-0.421v0c-0.524 0.135-0.864 0.477-1.019 1.026-0.151 0.541-0.1 1.408 0.15 2.603v0z" fill="#ffffff" data-fill-palette-color="primary"></path><path d="M182.349 257.062c0.589-0.205 1.156-0.293 1.702-0.266 0.555 0.032 1.126 0.184 1.715 0.458v0l-0.593 1.827c-0.389-0.14-0.737-0.222-1.043-0.246-0.314-0.028-0.627 0.011-0.937 0.12v0c-0.621 0.216-0.987 0.673-1.1 1.372-0.114 0.692 0.07 1.734 0.555 3.124v0c0.468 1.345 0.96 2.236 1.474 2.673 0.515 0.437 1.076 0.55 1.684 0.339v0c0.297-0.104 0.553-0.254 0.767-0.452 0.207-0.195 0.435-0.47 0.681-0.824v0l1.645 1.07c-0.587 1.147-1.424 1.909-2.51 2.287v0c-1.403 0.488-2.66 0.389-3.769-0.298-1.107-0.681-1.986-1.955-2.636-3.824v0c-0.421-1.209-0.607-2.316-0.557-3.319 0.056-1.006 0.337-1.854 0.843-2.545 0.506-0.691 1.199-1.19 2.079-1.496z" fill="#ffffff" data-fill-palette-color="primary"></path><path d="M195.411 262.203l1.512 1.15c-0.429 0.804-1.084 1.395-1.965 1.774v0c-0.925 0.398-1.74 0.436-2.445 0.113-0.712-0.32-1.263-0.933-1.652-1.838v0l-2.661-6.18-1.235 0.532-0.768-1.783 1.236-0.532-1.007-2.339 2.341-1.366 1.138 2.641 2-0.861 0.522 1.889-1.755 0.755 2.66 6.18c0.276 0.642 0.688 0.845 1.236 0.609v0c0.17-0.073 0.31-0.163 0.42-0.271 0.119-0.104 0.26-0.261 0.423-0.473z" fill="#ffffff" data-fill-palette-color="primary"></path><path d="M194.263 252.407l2.41-1.175 5.061 10.376-2.409 1.175zM192.942 246.652c0.431-0.21 0.845-0.244 1.241-0.103 0.406 0.145 0.714 0.433 0.924 0.864v0c0.204 0.418 0.238 0.832 0.103 1.241-0.133 0.4-0.414 0.705-0.845 0.915v0c-0.431 0.21-0.848 0.246-1.251 0.107-0.406-0.145-0.711-0.427-0.915-0.845v0c-0.21-0.431-0.247-0.851-0.111-1.259 0.139-0.403 0.423-0.709 0.854-0.92z" fill="#ffffff" data-fill-palette-color="primary"></path><path d="M204.1 247.018l2.284-1.323 3.183 11.498-2.737 1.586-8.472-8.434 2.4-1.391 6.35 7.171z" fill="#ffffff" data-fill-palette-color="primary"></path><path d="M217.826 244.527c0.074 0.107 0.264 0.425 0.57 0.954v0l-4.898 3.373c0.721 0.95 1.362 1.519 1.923 1.706 0.561 0.187 1.113 0.094 1.654-0.278v0c0.372-0.256 0.665-0.549 0.878-0.879 0.213-0.33 0.397-0.751 0.551-1.265v0l1.785 0.617c-0.277 1.396-1.002 2.498-2.176 3.306v0c-1.246 0.858-2.499 1.085-3.759 0.681-1.26-0.405-2.429-1.391-3.509-2.959v0c-1.08-1.568-1.615-3.028-1.607-4.381 0.006-1.343 0.591-2.414 1.752-3.214v0c1.117-0.769 2.263-0.964 3.439-0.584 1.181 0.375 2.314 1.35 3.397 2.923zM215.308 245.488l-0.088-0.127c-0.617-0.897-1.175-1.477-1.673-1.741-0.507-0.266-0.998-0.236-1.471 0.09v0c-0.446 0.307-0.647 0.745-0.604 1.314 0.044 0.56 0.39 1.357 1.036 2.392v0z" fill="#ffffff" data-fill-palette-color="primary"></path><path d="M220.697 230.327c0.935-0.845 1.876-1.432 2.824-1.762 0.943-0.335 1.995-0.289 3.157 0.138 1.166 0.432 2.421 1.393 3.766 2.882v0c1.9 2.104 2.806 3.948 2.715 5.534-0.08 1.586-0.796 2.99-2.148 4.211v0l-2.705 2.444-10.109-11.188zM222.393 231.591l-0.747 0.675 7.327 8.109 0.762-0.688c0.488-0.441 0.793-0.92 0.916-1.437 0.124-0.527 0.006-1.178-0.352-1.953-0.358-0.774-1.024-1.7-1.997-2.777v0c-0.996-1.103-1.857-1.857-2.583-2.262-0.721-0.4-1.339-0.553-1.853-0.457-0.509 0.1-1 0.364-1.473 0.79z" fill="#ffffff" data-fill-palette-color="primary"></path><path d="M239.102 224.453c0.096 0.088 0.353 0.355 0.771 0.802v0l-4.012 4.39c0.917 0.763 1.669 1.173 2.258 1.229 0.589 0.056 1.105-0.159 1.549-0.644v0c0.305-0.334 0.524-0.685 0.657-1.055 0.134-0.37 0.217-0.822 0.252-1.356v0l1.877 0.198c0.045 1.423-0.413 2.66-1.374 3.712v0c-1.021 1.117-2.19 1.621-3.509 1.51-1.318-0.11-2.68-0.807-4.085-2.091v0c-1.405-1.284-2.256-2.586-2.554-3.905-0.297-1.31 0.031-2.485 0.983-3.527v0c0.915-1.001 1.987-1.449 3.218-1.345 1.236 0.099 2.559 0.793 3.969 2.082zM236.865 225.957l-0.113-0.104c-0.804-0.734-1.478-1.174-2.023-1.319-0.554-0.145-1.025-0.005-1.413 0.42v0c-0.365 0.399-0.462 0.871-0.293 1.416 0.17 0.535 0.686 1.234 1.549 2.097v0z" fill="#ffffff" data-fill-palette-color="primary"></path><path d="M236.864 213.704c-0.247 0.319-0.345 0.625-0.293 0.916 0.052 0.291 0.256 0.575 0.613 0.851v0l1.219 0.943 1.351-1.746 1.347 1.432-1.163 1.503 7.595 5.878-1.641 2.12-7.595-5.878-0.88 1.137-1.535-1.189 0.88-1.137-1.153-0.892c-0.829-0.641-1.303-1.394-1.423-2.257-0.12-0.863 0.168-1.744 0.864-2.644v0c0.545-0.704 1.241-1.252 2.09-1.642v0l0.928 1.653c-0.509 0.255-0.911 0.572-1.204 0.952z" fill="#ffffff" data-fill-palette-color="primary"></path><path d="M250.043 209.405c0.108 0.073 0.4 0.3 0.877 0.683v0l-3.338 4.921c1.017 0.624 1.821 0.921 2.411 0.891 0.591-0.029 1.071-0.316 1.44-0.86v0c0.254-0.374 0.42-0.753 0.499-1.138 0.079-0.385 0.097-0.844 0.054-1.379v0l1.887-0.073c0.249 1.402-0.027 2.692-0.827 3.871v0c-0.85 1.252-1.935 1.919-3.255 1.999-1.321 0.08-2.769-0.414-4.344-1.482v0c-1.575-1.069-2.605-2.235-3.088-3.498-0.482-1.254-0.327-2.464 0.465-3.631v0c0.761-1.122 1.758-1.72 2.992-1.794 1.237-0.079 2.646 0.417 4.227 1.49zM248.045 211.215l-0.127-0.086c-0.901-0.611-1.631-0.95-2.191-1.015-0.569-0.063-1.015 0.143-1.339 0.619v0c-0.304 0.448-0.332 0.929-0.085 1.443 0.245 0.505 0.856 1.123 1.834 1.853v0z" fill="#ffffff" data-fill-palette-color="primary"></path><path d="M249.081 199.351c0.406-0.722 0.987-1.146 1.741-1.272 0.754-0.126 1.567 0.057 2.438 0.547v0l7.457 4.196-1.314 2.336-7.189-4.044c-0.483-0.272-0.868-0.398-1.154-0.379-0.283 0.014-0.495 0.146-0.636 0.397v0c-0.302 0.537-0.098 1.347 0.613 2.431v0l7.036 3.958-1.315 2.337-10.061-5.661 1.143-2.032 1.412 0.57c-0.336-0.645-0.527-1.235-0.572-1.771-0.042-0.526 0.092-1.064 0.401-1.613z" fill="#ffffff" data-fill-palette-color="primary"></path><path d="M252.933 191.431c0.563-1.249 1.447-2.119 2.653-2.612v0l0.917 1.539c-0.434 0.247-0.792 0.507-1.072 0.779-0.28 0.272-0.499 0.583-0.656 0.932v0c-0.172 0.381-0.204 0.727-0.096 1.039 0.108 0.311 0.339 0.547 0.695 0.707v0c0.356 0.16 0.698 0.168 1.026 0.023 0.328-0.145 0.806-0.523 1.435-1.133v0c0.769-0.757 1.499-1.244 2.189-1.459 0.69-0.215 1.444-0.138 2.262 0.231v0c1.024 0.461 1.667 1.183 1.931 2.165 0.27 0.985 0.157 2.027-0.339 3.126v0c-0.323 0.718-0.751 1.318-1.283 1.799-0.529 0.49-1.125 0.856-1.79 1.097v0l-0.775-1.78c0.984-0.45 1.65-1.063 1.999-1.836v0c0.197-0.437 0.233-0.834 0.108-1.191-0.118-0.354-0.384-0.624-0.796-0.809v0c-0.3-0.135-0.57-0.193-0.811-0.174-0.241 0.019-0.505 0.122-0.792 0.308-0.283 0.195-0.644 0.513-1.084 0.954v0c-0.767 0.751-1.479 1.215-2.136 1.391-0.649 0.173-1.345 0.093-2.088-0.242v0c-0.893-0.402-1.486-1.045-1.779-1.928-0.29-0.889-0.196-1.865 0.282-2.926z" fill="#ffffff" data-fill-palette-color="primary"></path><path d="M263.536 180.083c0.122 0.044 0.462 0.192 1.02 0.443v0l-2.014 5.596c1.14 0.352 1.992 0.441 2.557 0.266 0.565-0.175 0.959-0.572 1.181-1.191v0c0.153-0.425 0.22-0.834 0.202-1.226-0.019-0.393-0.115-0.842-0.29-1.349v0l1.81-0.539c0.589 1.296 0.642 2.614 0.159 3.955v0c-0.513 1.424-1.399 2.339-2.658 2.744-1.259 0.405-2.785 0.286-4.576-0.359v0c-1.791-0.645-3.078-1.519-3.859-2.623-0.778-1.095-0.927-2.306-0.449-3.633v0c0.459-1.276 1.277-2.102 2.453-2.479 1.179-0.384 2.667-0.252 4.464 0.395zM262.05 182.332l-0.145-0.052c-1.024-0.369-1.816-0.515-2.374-0.44-0.567 0.08-0.948 0.39-1.143 0.931v0c-0.183 0.509-0.092 0.982 0.275 1.42 0.362 0.429 1.108 0.875 2.236 1.34v0z" fill="#ffffff" data-fill-palette-color="primary"></path><path d="M267.498 177.068c0.136-0.474 0.405-0.813 0.806-1.018 0.408-0.203 0.835-0.241 1.283-0.112v0c0.447 0.129 0.79 0.388 1.027 0.776 0.237 0.389 0.288 0.82 0.151 1.294v0c-0.133 0.461-0.403 0.793-0.81 0.996-0.41 0.21-0.838 0.251-1.286 0.122v0c-0.447-0.129-0.789-0.391-1.024-0.786-0.231-0.387-0.28-0.811-0.147-1.272z" fill="#ffffff" data-fill-palette-color="primary"></path></g></svg></g></svg></g></svg></g></svg></g><defs></defs></svg><rect width="279.72" height="279.72" fill="none" stroke="none" visibility="hidden"></rect></g></svg></g></svg>